#!OML:ASF H:\LiuWeirdWalks\Patient Classification 1\Patient 1\Session 1\male.ASF
:FULLY-SPECIFIED
:DEGREES
432
root 2.48307 17.9968 7.22598 3.51117 3.01072 2.23601
lowerback 4.33176 3.36585 -4.05004
upperback -1.04293 4.30808 1.27127
thorax -3.90529 2.25166 3.23916
lowerneck -16.2327 -3.87388 -0.189647
upperneck 23.3812 -5.41299 0.136303
head 10.1433 -2.48222 -0.642953
rclavicle -3.55825e-014 -1.51076e-014
rhumerus -28.7839 10.7093 -78.6283
rradius 56.8313
rwrist 0.587959
rhand -11.5263 7.03826
rfingers 7.12502
rthumb 14.5134 -22.4341
lclavicle -3.55825e-014 -1.51076e-014
lhumerus -35.2558 -2.70682 75.3315
lradius 52.255
lwrist 4.8201
lhand -13.2613 -8.13455
lfingers 7.12502
lthumb 12.8413 21.4504
rfemur -22.0569 -8.65694 10.5682
rtibia 55.8595
rfoot -11.6445 -21.2625
rtoes -2.80135
lfemur -7.70104 -0.000139965 -26.3514
ltibia 26.3729
lfoot -12.3237 15.0452
ltoes -12.1383
433
root 2.48626 17.9858 7.34049 3.46164 2.70341 2.47512
lowerback 4.37199 2.90842 -4.40673
upperback -0.978167 3.677 1.29813
thorax -3.82914 1.94363 3.5228
lowerneck -16.2203 -3.59608 0.127686
upperneck 23.3156 -5.05972 -0.0651116
head 10.1016 -2.31819 -0.717531
rclavicle -1.63252e-014 -7.95139e-016
rhumerus -29.0414 10.0764 -77.8005
rradius 56.9329
rwrist 0.643682
rhand -11.5384 6.93905
rfingers 7.12502
rthumb 14.5018 -22.5341
lclavicle -1.63252e-014 -7.95139e-016
lhumerus -34.3757 -3.51791 75.4525
lradius 52.4012
lwrist 4.78677
lhand -13.2066 -8.17669
lfingers 7.12502
lthumb 12.894 21.405
rfemur -23.2641 -8.28043 10.4755
rtibia 55.1117
rfoot -12.0404 -21.519
rtoes -3.09461
lfemur -7.05184 0.100025 -26.6472
ltibia 26.067
lfoot -12.4081 15.3248
ltoes -12.1749
434
root 2.48903 17.9765 7.45593 3.41402 2.43194 2.71214
lowerback 4.41171 2.43873 -4.75581
upperback -0.923082 3.02977 1.32187
thorax -3.75194 1.62694 3.80004
lowerneck -16.185 -3.30762 0.458136
upperneck 23.24 -4.69367 -0.271651
head 10.0537 -2.14781 -0.794137
rclavicle 2.88983e-014 1.43125e-014
rhumerus -29.3237 9.43442 -76.9648
rradius 57.0529
rwrist 0.618271
rhand -11.5349 6.83671
rfingers 7.12502
rthumb 14.5052 -22.6362
lclavicle 2.88983e-014 1.43125e-014
lhumerus -33.533 -4.27035 75.4962
lradius 52.5584
lwrist 4.69403
lhand -13.1735 -8.20344
lfingers 7.12502
lthumb 12.926 21.3762
rfemur -24.399 -7.93628 10.4013
rtibia 54.2178
rfoot -12.3843 -21.7811
rtoes -3.40455
lfemur -6.37693 0.173464 -26.9391
ltibia 25.703
lfoot -12.464 15.5817
ltoes -12.2073
435
root 2.491 17.9689 7.57218 3.37001 2.19663 2.9533
lowerback 4.45385 1.96106 -5.11144
upperback -0.877807 2.37126 1.34748
thorax -3.67689 1.3045 4.08323
lowerneck -16.125 -3.0243 0.764587
upperneck 23.1412 -4.32975 -0.470545
head 9.99587 -1.97983 -0.86398
rclavicle 1.75924e-014 -3.57812e-014
rhumerus -29.6293 8.81544 -76.1109
rradius 57.1787
rwrist 0.461253
rhand -11.5857 6.75921
rfingers 7.12502
rthumb 14.4562 -22.7173
lclavicle 1.75924e-014 -3.57812e-014
lhumerus -32.7128 -4.95812 75.4879
lradius 52.7084
lwrist 4.58838
lhand -13.1563 -8.18901
lfingers 7.12502
lthumb 12.9425 21.3896
rfemur -25.4649 -7.62137 10.3383
rtibia 53.1849
rfoot -12.6616 -22.0506
rtoes -3.73882
lfemur -5.67702 0.236106 -27.2311
ltibia 25.2762
lfoot -12.4838 15.8044
ltoes -12.2704
436
root 2.49163 17.9627 7.68954 3.32472 1.98378 3.18614
lowerback 4.50066 1.47325 -5.48179
upperback -0.826961 1.69849 1.38422
thorax -3.58893 0.974336 4.38684
lowerneck -16.1049 -2.72528 1.08667
upperneck 23.0603 -3.94453 -0.686972
head 9.9537 -1.80207 -0.941269
rclavicle -2.55935e-015 1.59028e-015
rhumerus -29.9151 8.22161 -75.2418
rradius 57.3065
rwrist 0.181304
rhand -11.6242 6.67502
rfingers 7.12502
rthumb 14.4192 -22.8041
lclavicle -2.55935e-015 1.59028e-015
lhumerus -31.8788 -5.53358 75.4151
lradius 52.8196
lwrist 4.33677
lhand -13.1182 -8.14322
lfingers 7.12502
lthumb 12.9792 21.4331
rfemur -26.4572 -7.31007 10.2986
rtibia 52.0226
rfoot -12.8698 -22.3232
rtoes -4.03118
lfemur -4.94232 0.29862 -27.509
ltibia 24.7779
lfoot -12.4633 15.9985
ltoes -12.3811
437
root 2.4914 17.9579 7.80815 3.2799 1.78994 3.41651
lowerback 4.54885 0.985687 -5.85578
upperback -0.780042 1.02564 1.42379
thorax -3.49623 0.643507 4.6944
lowerneck -16.0874 -2.42651 1.41127
upperneck 22.9612 -3.55755 -0.914663
head 9.90768 -1.6246 -1.02283
rclavicle -1.30204e-014 -1.03368e-014
rhumerus -30.2138 7.62926 -74.3532
rradius 57.4495
rwrist -0.20745
rhand -11.6497 6.57122
rfingers 7.12502
rthumb 14.3946 -22.9096
lclavicle -1.30204e-014 -1.03368e-014
lhumerus -31.026 -6.0352 75.3037
lradius 52.8767
lwrist 4.01746
lhand -13.1024 -8.10302
lfingers 7.12502
lthumb 12.9945 21.4723
rfemur -27.3801 -7.00251 10.2688
rtibia 50.7406
rfoot -12.9785 -22.5805
rtoes -4.30424
lfemur -4.17004 0.367095 -27.7816
ltibia 24.2056
lfoot -12.3995 16.1659
ltoes -12.5211
438
root 2.49 17.9541 7.92818 3.23185 1.61047 3.64999
lowerback 4.60531 0.499683 -6.24202
upperback -0.733891 0.353574 1.46735
thorax -3.39935 0.312513 5.01166
lowerneck -16.1052 -2.12515 1.74384
upperneck 22.8957 -3.16577 -1.16103
head 9.88237 -1.44572 -1.11302
rclavicle -8.89561e-015 1.27222e-014
rhumerus -30.5124 7.0306 -73.438
rradius 57.5979
rwrist -0.586972
rhand -11.6377 6.41284
rfingers 7.12502
rthumb 14.4061 -23.0672
lclavicle -8.89561e-015 1.27222e-014
lhumerus -30.1565 -6.46269 75.1651
lradius 52.8925
lwrist 3.65693
lhand -13.1069 -8.07731
lfingers 7.12502
lthumb 12.9901 21.4983
rfemur -28.2328 -6.68439 10.2382
rtibia 49.3493
rfoot -12.9572 -22.808
rtoes -4.50936
lfemur -3.35147 0.445035 -28.0537
ltibia 23.5536
lfoot -12.2861 16.3085
ltoes -12.6884
439
root 2.48725 17.9511 8.04937 3.18505 1.43936 3.87116
lowerback 4.66343 0.0215324 -6.62236
upperback -0.692761 -0.307993 1.51591
thorax -3.29986 -0.0140304 5.32849
lowerneck -16.1157 -1.82976 2.07426
upperneck 22.8119 -2.78029 -1.41354
head 9.85156 -1.27074 -1.20564
rclavicle -9.64106e-015 -3.97569e-015
rhumerus -30.8215 6.40261 -72.4885
rradius 57.7415
rwrist -0.855367
rhand -11.5649 6.25234
rfingers 7.12502
rthumb 14.4763 -23.2227
lclavicle -9.64106e-015 -3.97569e-015
lhumerus -29.2652 -6.83565 75.0103
lradius 52.8563
lwrist 3.30635
lhand -13.1366 -8.1195
lfingers 7.12502
lthumb 12.9615 21.4579
rfemur -29.0231 -6.33521 10.2197
rtibia 47.8573
rfoot -12.774 -22.9851
rtoes -4.66644
lfemur -2.49347 0.542856 -28.3076
ltibia 22.8193
lfoot -12.1171 16.4255
ltoes -12.8871
440
root 2.4838 17.9486 8.17186 3.14201 1.2862 4.10967
lowerback 4.72392 -0.452249 -7.01526
upperback -0.657288 -0.965226 1.56027
thorax -3.19808 -0.338907 5.64596
lowerneck -16.1382 -1.53897 2.3906
upperneck 22.7617 -2.39921 -1.66272
head 9.83775 -1.09811 -1.29619
rclavicle 3.49861e-014 -1.90833e-014
rhumerus -31.1472 5.76478 -71.5048
rradius 57.8813
rwrist -1.02803
rhand -11.4712 6.11464
rfingers 7.12502
rthumb 14.5666 -23.3539
lclavicle 3.49861e-014 -1.90833e-014
lhumerus -28.3724 -7.16919 74.8514
lradius 52.8001
lwrist 3.02117
lhand -13.203 -8.22558
lfingers 7.12502
lthumb 12.8975 21.3559
rfemur -29.7533 -5.97984 10.1733
rtibia 46.2771
rfoot -12.378 -23.0831
rtoes -4.77814
lfemur -1.59575 0.648035 -28.5793
ltibia 22.0055
lfoot -11.8983 16.5239
ltoes -13.0936
441
root 2.47962 17.9463 8.29565 3.10338 1.14915 4.35568
lowerback 4.78151 -0.915856 -7.41028
upperback -0.625005 -1.60933 1.60139
thorax -3.08992 -0.658164 5.95816
lowerneck -16.1642 -1.26899 2.66934
upperneck 22.6992 -2.04338 -1.8882
head 9.82271 -0.937665 -1.37538
rclavicle 1.89839e-014 -1.51076e-014
rhumerus -31.5004 5.12379 -70.492
rradius 58.031
rwrist -1.18528
rhand -11.388 6.01079
rfingers 7.12502
rthumb 14.6467 -23.4519
lclavicle 1.89839e-014 -1.51076e-014
lhumerus -27.4722 -7.48745 74.7027
lradius 52.7351
lwrist 2.86361
lhand -13.2552 -8.28306
lfingers 7.12502
lthumb 12.8472 21.3016
rfemur -30.426 -5.61185 10.1073
rtibia 44.6204
rfoot -11.7755 -23.0875
rtoes -4.84563
lfemur -0.662265 0.765026 -28.857
ltibia 21.119
lfoot -11.6294 16.6028
ltoes -13.3181
442
root 2.47452 17.9444 8.42078 3.07703 1.02327 4.60921
lowerback 4.83365 -1.37861 -7.81842
upperback -0.603234 -2.25332 1.64225
thorax -2.97932 -0.977704 6.27503
lowerneck -16.1663 -0.988918 2.96542
upperneck 22.6142 -1.67305 -2.13212
head 9.79732 -0.771248 -1.46151
rclavicle 8.94531e-016 5.56597e-015
rhumerus -31.8893 4.50702 -69.4604
rradius 58.1986
rwrist -1.30409
rhand -11.2865 5.97098
rfingers 7.12502
rthumb 14.7445 -23.4846
lclavicle 8.94531e-016 5.56597e-015
lhumerus -26.5789 -7.76716 74.5543
lradius 52.6529
lwrist 2.7862
lhand -13.3006 -8.33781
lfingers 7.12502
lthumb 12.8034 21.2496
rfemur -31.052 -5.2192 10.019
rtibia 42.9054
rfoot -11.0028 -22.9955
rtoes -4.88677
lfemur 0.294905 0.902665 -29.1379
ltibia 20.1614
lfoot -11.3229 16.6568
ltoes -13.5309
443
root 2.46864 17.9426 8.54689 3.06571 0.912913 4.86513
lowerback 4.8736 -1.83425 -8.2261
upperback -0.588878 -2.88735 1.68317
thorax -2.8612 -1.29318 6.58782
lowerneck -16.1498 -0.719952 3.24188
upperneck 22.5037 -1.31399 -2.37059
head 9.7615 -0.611108 -1.54344
rclavicle -1.26725e-014 -7.95139e-016
rhumerus -32.3175 3.92312 -68.4072
rradius 58.4011
rwrist -1.46506
rhand -11.2145 5.91909
rfingers 7.12502
rthumb 14.8139 -23.5314
lclavicle -1.26725e-014 -7.95139e-016
lhumerus -25.6862 -8.03169 74.4312
lradius 52.5689
lwrist 2.86773
lhand -13.3549 -8.32384
lfingers 7.12502
lthumb 12.751 21.2668
rfemur -31.6391 -4.81476 9.91381
rtibia 41.1494
rfoot -10.1084 -22.81
rtoes -4.94878
lfemur 1.26634 1.05501 -29.4143
ltibia 19.1455
lfoot -10.9842 16.6831
ltoes -13.7215
444
root 2.46181 17.9405 8.67474 3.06117 0.818961 5.11811
lowerback 4.89906 -2.29058 -8.63437
upperback -0.571291 -3.52105 1.72766
thorax -2.72135 -1.6105 6.9003
lowerneck -16.128 -0.445763 3.52434
upperneck 22.379 -0.947692 -2.61595
head 9.72197 -0.447773 -1.6277
rclavicle 4.2043e-014 -7.95139e-016
rhumerus -32.7574 3.37184 -67.3408
rradius 58.6203
rwrist -1.63183
rhand -11.1494 5.90525
rfingers 7.12502
rthumb 14.8766 -23.5406
lclavicle 4.2043e-014 -7.95139e-016
lhumerus -24.7796 -8.2399 74.3141
lradius 52.4714
lwrist 2.93316
lhand -13.3548 -8.24739
lfingers 7.12502
lthumb 12.7512 21.3433
rfemur -32.1731 -4.39993 9.79595
rtibia 39.3734
rfoot -9.19679 -22.5375
rtoes -5.0815
lfemur 2.26038 1.23037 -29.6762
ltibia 18.0806
lfoot -10.6284 16.6707
ltoes -13.912
445
root 2.45399 17.9381 8.80384 3.06699 0.744271 5.35315
lowerback 4.91213 -2.73988 -9.02008
upperback -0.562496 -4.1432 1.77737
thorax -2.57705 -1.92321 7.20038
lowerneck -16.0689 -0.184195 3.78926
upperneck 22.2164 -0.596058 -2.8508
head 9.66389 -0.291385 -1.70648
rclavicle -6.5102e-015 1.59028e-015
rhumerus -33.2211 2.81833 -66.2484
rradius 58.8268
rwrist -1.77966
rhand -11.0845 5.88411
rfingers 7.12502
rthumb 14.9391 -23.5571
lclavicle -6.5102e-015 1.59028e-015
lhumerus -23.8729 -8.42734 74.2235
lradius 52.3666
lwrist 2.98657
lhand -13.3044 -8.1285
lfingers 7.12502
lthumb 12.7998 21.4591
rfemur -32.6605 -3.96521 9.67848
rtibia 37.5992
rfoot -8.37208 -22.2037
rtoes -5.31553
lfemur 3.26473 1.41469 -29.9054
ltibia 16.976
lfoot -10.2519 16.6183
ltoes -14.1059
